<svg id="visual" viewBox="0 0 900 600" width="900" height="600" xmlns="http://www.w3.org/2000/svg" xmlns:xlink="http://www.w3.org/1999/xlink" version="1.1">
    </style>
    <g id="kdkja">
        <g transform="translate(739 340)"><path d="M0 -71.4L61.9 -35.7L61.9 35.7L0 71.4L-61.9 35.7L-61.9 -35.7Z" fill="none" stroke="#a62929" stroke-width="2"></path></g>
        <g transform="translate(221 295)"><path d="M0 -67L58 -33.5L58 33.5L0 67L-58 33.5L-58 -33.5Z" fill="none" stroke="#a62929" stroke-width="2"></path></g>
        <g transform="translate(176 458)"><path d="M0 -59L51.1 -29.5L51.1 29.5L0 59L-51.1 29.5L-51.1 -29.5Z" fill="none" stroke="#a62929" stroke-width="2"></path></g>
        <g transform="translate(816 483)"><path d="M0 -48L41.6 -24L41.6 24L0 48L-41.6 24L-41.6 -24Z" stroke="#a62929" fill="none" stroke-width="2"></path></g>
        <g transform="translate(313 512)"><path d="M0 -14L12.1 -7L12.1 7L0 14L-12.1 7L-12.1 -7Z" stroke="#a62929" fill="none" stroke-width="2"></path></g>
        <g transform="translate(486 258)"><path d="M0 -62L53.7 -31L53.7 31L0 62L-53.7 31L-53.7 -31Z" stroke="#a62929" fill="none" stroke-width="2"></path></g>
        <g transform="translate(517 417)"><path d="M0 -34L29.4 -17L29.4 17L0 34L-29.4 17L-29.4 -17Z" stroke="#a62929" fill="none" stroke-width="2"></path></g>
        <g transform="translate(389 118)"><path d="M0 -52L45 -26L45 26L0 52L-45 26L-45 -26Z" stroke="#a62929" fill="none" stroke-width="2"></path></g>
        <g transform="translate(82 232)"><path d="M0 -42L36.4 -21L36.4 21L0 42L-36.4 21L-36.4 -21Z" stroke="#a62929" fill="none" stroke-width="2"></path></g>
        <g transform="translate(647 480)"><path d="M0 -35L30.3 -17.5L30.3 17.5L0 35L-30.3 17.5L-30.3 -17.5Z" stroke="#a62929" fill="none" stroke-width="2"></path></g>
        <g transform="translate(220 80)"><path d="M0 -38L32.9 -19L32.9 19L0 38L-32.9 19L-32.9 -19Z" stroke="#a62929" fill="none" stroke-width="2"></path></g>
        <g transform="translate(697 75)"><path d="M0 -66L57.2 -33L57.2 33L0 66L-57.2 33L-57.2 -33Z" stroke="#a62929" fill="none" stroke-width="2"></path></g>
        <g transform="translate(371 345)"><path d="M0 -27L23.4 -13.5L23.4 13.5L0 27L-23.4 13.5L-23.4 -13.5Z" stroke="#a62929" fill="none" stroke-width="2"></path></g>
        <g transform="translate(819 190)"><path d="M0 -69L59.8 -34.5L59.8 34.5L0 69L-59.8 34.5L-59.8 -34.5Z" stroke="#a62929" fill="none" stroke-width="2"></path></g>
        <g transform="translate(535 95)"><path d="M0 -33L28.6 -16.5L28.6 16.5L0 33L-28.6 16.5L-28.6 -16.5Z" stroke="#a62929" fill="none" stroke-width="2"></path></g>
    </g>
</svg>